<svg id="Layer_1" data-name="Layer 1" xmlns="http://www.w3.org/2000/svg" viewBox="0 0 192.29 188.78"><defs><style>.cls-1{fill:#1a1a1a;}</style></defs><title>paw</title><path class="cls-1" d="M40.67,126.87c9.55-6,18.09-13.57,24.1-23.1a32.21,32.21,0,0,1,53.67-2c6.71,9,15.79,16,25.76,21.23,11.27,5.92,18.81,15.86,19.24,27.38.72,19.22-18.61,35.54-43.17,36.46a53.21,53.21,0,0,1-25.72-5.33,53.29,53.29,0,0,1-25.24,7.24c-24.56.92-45-13.92-45.77-33.13C23.11,144.09,29.88,133.61,40.67,126.87Z"/><path class="cls-1" d="M182.88,49.09c8.52,12,16.75,31.77-1.67,50.27a20.14,20.14,0,0,1-24.75,3c-15.54-9.45-37-27.47-9.46-43.6A67.51,67.51,0,0,0,164.72,47.1,12.23,12.23,0,0,1,182.88,49.09Z"/><path class="cls-1" d="M14.24,56C4.69,63.84-6.33,78,4.44,97a16.88,16.88,0,0,0,19.33,7.89c14.65-4.19,36-14,17.31-33.12A56.36,56.36,0,0,1,29.35,58.45,10.24,10.24,0,0,0,14.24,56Z"/><path class="cls-1" d="M91.78,23.24C94.25,8.61,105.52-1.7,117,.23s18.71,15.36,16.24,30a31.6,31.6,0,0,1-7.39,15.85,25.45,25.45,0,0,0-4.21,6.74c-2.94,6.67-8.9,10.85-14.93,9.83-5.84-1-10-6.55-10.83-13.5A25.45,25.45,0,0,0,93.9,41.4,31.53,31.53,0,0,1,91.78,23.24Z"/><path class="cls-1" d="M39.49,34.05C36.56,20,43.08,6.77,54.05,4.49s22.24,7.24,25.17,21.27a30.7,30.7,0,0,1-1.08,16.86,24.62,24.62,0,0,0-1.42,7.55c-.3,7-4.19,12.89-10,14.09-5.6,1.17-11.32-2.36-14.49-8.34a24.37,24.37,0,0,0-4.47-6.27A30.51,30.51,0,0,1,39.49,34.05Z"/></svg>