<svg id="_ÎÓÈ_1" data-name="—ÎÓÈ_1" xmlns="http://www.w3.org/2000/svg" viewBox="0 0 426.75 688.77"><defs><style>.cls-1{fill:#1a1a1a;}</style></defs><title>paws-walk-up</title><path class="cls-1" d="M176.88,446.61c-10.62-3.77-20.59-9.35-28.51-17.36a32.21,32.21,0,0,0-52.84,9.6c-4.61,10.28-12,19-20.59,26.27C65.22,473.33,60,484.66,62.05,496c3.44,18.92,25.82,30.7,50,26.31a53.19,53.19,0,0,0,24-10.74,53.21,53.21,0,0,0,26.22,1.63c24.18-4.39,41-23.29,37.56-42.21C197.74,459.65,188.87,450.87,176.88,446.61Z"/><path class="cls-1" d="M21.25,401.28c-5.73,13.57-9.51,34.63,12.46,48.74a20.16,20.16,0,0,0,24.81-2.42C71.66,435,88.71,412.81,58.38,403a67.26,67.26,0,0,1-19.81-7.55A12.24,12.24,0,0,0,21.25,401.28Z"/><path class="cls-1" d="M187.44,371.74c11,5.58,24.81,17,18.39,37.91a16.89,16.89,0,0,1-17.18,11.88c-15.21-.94-38.12-5.93-24-28.62a56.43,56.43,0,0,0,8.59-15.54A10.25,10.25,0,0,1,187.44,371.74Z"/><path class="cls-1" d="M104.65,356.43c-5.56-13.77-18.79-21.4-29.54-17.05s-15,19-9.4,32.78a31.72,31.72,0,0,0,10.62,13.89,25.18,25.18,0,0,1,5.57,5.67c4.31,5.88,11,8.68,16.7,6.38,5.49-2.22,8.38-8.55,7.66-15.51a25.65,25.65,0,0,1,.24-8A31.46,31.46,0,0,0,104.65,356.43Z"/><path class="cls-1" d="M158,355.72c-.16-14.34-9.38-25.86-20.58-25.73s-20.16,11.85-20,26.19a30.67,30.67,0,0,0,4.67,16.23,24.59,24.59,0,0,1,3,7.07c1.81,6.8,6.87,11.68,12.78,11.61,5.72-.06,10.55-4.75,12.35-11.26a24.59,24.59,0,0,1,3-7.09A30.38,30.38,0,0,0,158,355.72Z"/><path class="cls-1" d="M263.19,625.45c9.8-5.55,18.65-12.78,25.07-22a32.21,32.21,0,0,1,53.7.29c6.32,9.33,15.09,16.65,24.83,22.31,11,6.4,18.11,16.65,18,28.18-.11,19.23-20.11,34.71-44.69,34.58a53.11,53.11,0,0,1-25.46-6.43,53.23,53.23,0,0,1-25.54,6.16c-24.57-.14-44.41-15.83-44.31-35.06C244.9,641.91,252.12,631.73,263.19,625.45Z"/><path class="cls-1" d="M408.6,553.84c8,12.36,15.37,32.45-3.82,50.15a20.14,20.14,0,0,1-24.85,1.92c-15.13-10.11-35.77-29-7.59-44a67.21,67.21,0,0,0,18.2-10.87A12.22,12.22,0,0,1,408.6,553.84Z"/><path class="cls-1" d="M239.81,553.55c-9.87,7.4-21.49,21.05-11.54,40.52a16.88,16.88,0,0,0,19,8.72c14.81-3.56,36.52-12.44,18.71-32.35a56.54,56.54,0,0,1-11.15-13.82A10.24,10.24,0,0,0,239.81,553.55Z"/><path class="cls-1" d="M318.69,524.11c3.09-14.51,14.8-24.32,26.14-21.91s18,16.15,14.94,30.66a31.61,31.61,0,0,1-8.06,15.52,25.45,25.45,0,0,0-4.5,6.55c-3.22,6.54-9.35,10.46-15.33,9.18-5.8-1.23-9.74-7-10.24-14a25.64,25.64,0,0,0-1.61-7.81A31.46,31.46,0,0,1,318.69,524.11Z"/><path class="cls-1" d="M266,532.67c-2.33-14.15,4.75-27.09,15.81-28.91S303.7,512,306,526.1a30.59,30.59,0,0,1-1.8,16.79,24.64,24.64,0,0,0-1.74,7.48c-.6,7-4.74,12.7-10.57,13.66-5.65.92-11.22-2.85-14.12-9a24.67,24.67,0,0,0-4.2-6.46A30.38,30.38,0,0,1,266,532.67Z"/><path class="cls-1" d="M275.13,239.91c9.56-6,18.09-13.57,24.1-23.1a32.21,32.21,0,0,1,53.67-2c6.71,9,15.79,16,25.76,21.22,11.27,5.92,18.81,15.86,19.24,27.38.72,19.22-18.61,35.54-43.17,36.46A53,53,0,0,1,329,294.54a53.1,53.1,0,0,1-25.25,7.24c-24.56.92-45-13.91-45.77-33.13C257.57,257.13,264.34,246.65,275.13,239.91Z"/><path class="cls-1" d="M417.34,162.13c8.52,12,16.75,31.77-1.66,50.28a20.18,20.18,0,0,1-24.76,3c-15.54-9.46-37-27.48-9.46-43.61a67,67,0,0,0,17.72-11.64A12.23,12.23,0,0,1,417.34,162.13Z"/><path class="cls-1" d="M248.7,169.07c-9.55,7.81-20.57,22-9.8,41a16.89,16.89,0,0,0,19.33,7.9c14.65-4.19,36-14,17.31-33.13a56.36,56.36,0,0,1-11.73-13.33A10.24,10.24,0,0,0,248.7,169.07Z"/><path class="cls-1" d="M326.25,136.28c2.46-14.63,13.73-24.93,25.17-23s18.71,15.36,16.24,30a31.68,31.68,0,0,1-7.38,15.84,25.49,25.49,0,0,0-4.22,6.74c-2.94,6.67-8.9,10.85-14.93,9.83-5.84-1-10-6.55-10.82-13.5a25.62,25.62,0,0,0-1.95-7.73A31.5,31.5,0,0,1,326.25,136.28Z"/><path class="cls-1" d="M274,147.09c-2.92-14,3.6-27.27,14.56-29.56s22.24,7.24,25.17,21.28a30.67,30.67,0,0,1-1.07,16.85,24.63,24.63,0,0,0-1.43,7.55c-.3,7-4.19,12.89-10,14.1-5.6,1.16-11.32-2.37-14.48-8.34a24.53,24.53,0,0,0-4.48-6.28A30.51,30.51,0,0,1,274,147.09Z"/><path class="cls-1" d="M158.78,118.29C148.34,114,138.64,108,131.08,99.66a32.21,32.21,0,0,0-53.22,7.22C72.8,116.94,65,125.33,56.11,132.2,46,140,40.3,151.05,41.85,162.47,44.44,181.53,66.27,194.3,90.63,191a53.25,53.25,0,0,0,24.42-9.66,53.28,53.28,0,0,0,26.12,2.81c24.35-3.3,42-21.43,39.41-40.48C179,132.24,170.56,123.08,158.78,118.29Z"/><path class="cls-1" d="M5.35,66C-1,79.31-5.71,100.19,15.6,115.26A20.15,20.15,0,0,0,40.5,114c13.69-12,31.72-33.4,1.85-44.58A67.4,67.4,0,0,1,22.9,61,12.22,12.22,0,0,0,5.35,66Z"/><path class="cls-1" d="M172.69,44c10.74,6.06,24,18.1,16.67,38.69a16.88,16.88,0,0,1-17.69,11.09c-15.15-1.62-37.82-7.63-22.73-29.67a56.33,56.33,0,0,0,9.27-15.14A10.24,10.24,0,0,1,172.69,44Z"/><path class="cls-1" d="M90.67,25C85.73,11,72.86,2.73,61.93,6.59S46.13,24.93,51.06,38.92a31.78,31.78,0,0,0,10,14.35,25.17,25.17,0,0,1,5.31,5.92c4,6.06,10.63,9.16,16.39,7.12,5.59-2,8.76-8.17,8.36-15.15a25.54,25.54,0,0,1,.59-7.95A31.53,31.53,0,0,0,90.67,25Z"/><path class="cls-1" d="M144,26.64C144.52,12.31,135.83.38,124.63,0S104,11,103.49,25.28a30.58,30.58,0,0,0,3.94,16.43,24.5,24.5,0,0,1,2.7,7.19c1.5,6.88,6.33,12,12.24,12.17,5.72.2,10.75-4.27,12.85-10.69a24.35,24.35,0,0,1,3.33-7A30.47,30.47,0,0,0,144,26.64Z"/></svg>