<svg id="_ÎÓÈ_1" data-name="—ÎÓÈ_1" xmlns="http://www.w3.org/2000/svg" viewBox="0 0 688.77 426.75"><defs><style>.cls-1{fill:#1a1a1a;}</style></defs><title>paw-walk</title><path class="cls-1" d="M242.16,176.88c3.77-10.62,9.35-20.59,17.36-28.51a32.2,32.2,0,0,0-9.59-52.84c-10.28-4.61-19-12-26.28-20.59-8.2-9.72-19.54-14.95-30.88-12.89-18.92,3.44-30.7,25.82-26.31,50a53.2,53.2,0,0,0,10.75,24,53.21,53.21,0,0,0-1.64,26.22c4.39,24.18,23.29,41,42.21,37.56C229.12,197.74,237.9,188.87,242.16,176.88Z"/><path class="cls-1" d="M287.49,21.25c-13.56-5.73-34.63-9.51-48.74,12.46a20.16,20.16,0,0,0,2.42,24.81c12.58,13.14,34.79,30.19,44.62-.14a67.26,67.26,0,0,1,7.55-19.81A12.24,12.24,0,0,0,287.49,21.25Z"/><path class="cls-1" d="M317,187.44c-5.58,11-17,24.81-37.91,18.39a16.88,16.88,0,0,1-11.87-17.18c.93-15.21,5.92-38.12,28.61-24a56.4,56.4,0,0,0,15.55,8.59A10.25,10.25,0,0,1,317,187.44Z"/><path class="cls-1" d="M332.35,104.65c13.76-5.56,21.39-18.79,17-29.54s-19-15-32.78-9.4a31.72,31.72,0,0,0-13.89,10.62,25.18,25.18,0,0,1-5.67,5.57c-5.88,4.31-8.67,11-6.38,16.7,2.22,5.49,8.55,8.38,15.51,7.66a25.65,25.65,0,0,1,8,.24A31.5,31.5,0,0,0,332.35,104.65Z"/><path class="cls-1" d="M333.05,158c14.34-.16,25.86-9.38,25.73-20.58s-11.85-20.16-26.19-20a30.67,30.67,0,0,0-16.23,4.67,24.59,24.59,0,0,1-7.07,3c-6.8,1.81-11.68,6.87-11.61,12.78.06,5.72,4.75,10.55,11.26,12.35a24.47,24.47,0,0,1,7.09,3A30.38,30.38,0,0,0,333.05,158Z"/><path class="cls-1" d="M63.32,263.19c5.55,9.8,12.78,18.65,22,25.07a32.2,32.2,0,0,1-.29,53.7c-9.33,6.32-16.65,15.09-22.31,24.83-6.4,11-16.65,18.11-28.18,18C15.35,384.73-.13,364.73,0,340.15a53.11,53.11,0,0,1,6.43-25.46A53.23,53.23,0,0,1,.28,289.15c.13-24.57,15.83-44.41,35.05-44.31C46.86,244.9,57,252.12,63.32,263.19Z"/><path class="cls-1" d="M134.94,408.6c-12.37,8-32.46,15.37-50.16-3.82a20.14,20.14,0,0,1-1.92-24.85c10.11-15.13,29-35.77,44-7.59a67.21,67.21,0,0,0,10.87,18.2A12.23,12.23,0,0,1,134.94,408.6Z"/><path class="cls-1" d="M135.22,239.81c-7.39-9.87-21-21.49-40.52-11.54a16.88,16.88,0,0,0-8.72,19c3.56,14.81,12.45,36.52,32.36,18.71a56.29,56.29,0,0,1,13.82-11.15A10.25,10.25,0,0,0,135.22,239.81Z"/><path class="cls-1" d="M164.66,318.69c14.52,3.09,24.33,14.8,21.91,26.14s-16.14,18-30.66,14.94a31.7,31.7,0,0,1-15.52-8.06,25.45,25.45,0,0,0-6.55-4.5c-6.54-3.22-10.45-9.35-9.18-15.33,1.24-5.8,7-9.74,14-10.24a25.64,25.64,0,0,0,7.81-1.61A31.46,31.46,0,0,1,164.66,318.69Z"/><path class="cls-1" d="M156.1,266c14.15-2.33,27.1,4.75,28.91,15.81s-8.18,21.9-22.33,24.23a30.62,30.62,0,0,1-16.8-1.8,24.57,24.57,0,0,0-7.48-1.74c-7-.6-12.7-4.74-13.65-10.57-.93-5.65,2.85-11.22,8.95-14.12a24.67,24.67,0,0,0,6.46-4.2A30.38,30.38,0,0,1,156.1,266Z"/><path class="cls-1" d="M448.86,275.13c6,9.56,13.57,18.09,23.1,24.1a32.21,32.21,0,0,1,2,53.67c-9.05,6.71-16,15.79-21.23,25.76-5.92,11.27-15.86,18.81-27.38,19.24-19.22.72-35.54-18.61-36.46-43.17A53.15,53.15,0,0,1,394.23,329,53.22,53.22,0,0,1,387,303.77c-.92-24.56,13.91-45,33.13-45.77C431.64,257.57,442.12,264.34,448.86,275.13Z"/><path class="cls-1" d="M526.64,417.34c-12,8.52-31.77,16.75-50.27-1.66a20.15,20.15,0,0,1-3-24.76c9.45-15.54,27.47-37,43.6-9.46a67.33,67.33,0,0,0,11.64,17.72A12.23,12.23,0,0,1,526.64,417.34Z"/><path class="cls-1" d="M519.7,248.7c-7.81-9.55-22-20.57-41-9.8a16.87,16.87,0,0,0-7.89,19.33c4.19,14.65,14,36,33.12,17.31a56.36,56.36,0,0,1,13.33-11.73A10.24,10.24,0,0,0,519.7,248.7Z"/><path class="cls-1" d="M552.49,326.25c14.63,2.46,24.94,13.73,23,25.17s-15.36,18.71-30,16.24a31.68,31.68,0,0,1-15.84-7.38,25.49,25.49,0,0,0-6.74-4.22c-6.67-2.94-10.85-8.9-9.83-14.93,1-5.84,6.55-10,13.5-10.82a25.62,25.62,0,0,0,7.73-1.95A31.5,31.5,0,0,1,552.49,326.25Z"/><path class="cls-1" d="M541.68,274c14-2.92,27.27,3.6,29.56,14.56S564,310.75,550,313.68a30.71,30.71,0,0,1-16.86-1.07,24.63,24.63,0,0,0-7.55-1.43c-7-.3-12.89-4.19-14.09-10-1.17-5.6,2.36-11.32,8.34-14.48a24.65,24.65,0,0,0,6.27-4.48A30.51,30.51,0,0,1,541.68,274Z"/><path class="cls-1" d="M570.49,158.78c4.24-10.44,10.27-20.14,18.62-27.7a32.21,32.21,0,0,0-7.21-53.22C571.83,72.8,563.44,65,556.57,56.11,548.81,46,537.72,40.3,526.3,41.85c-19.06,2.59-31.83,24.42-28.53,48.78a53.25,53.25,0,0,0,9.66,24.42,53.28,53.28,0,0,0-2.81,26.12c3.3,24.35,21.43,42,40.48,39.41C556.53,179,565.69,170.56,570.49,158.78Z"/><path class="cls-1" d="M622.75,5.35C609.46-1,588.59-5.71,573.51,15.6a20.17,20.17,0,0,0,1.3,24.9c12,13.69,33.4,31.72,44.58,1.85a67.4,67.4,0,0,1,8.43-19.45A12.22,12.22,0,0,0,622.75,5.35Z"/><path class="cls-1" d="M644.81,172.69c-6.07,10.74-18.11,24-38.7,16.67A16.88,16.88,0,0,1,595,171.67c1.62-15.15,7.63-37.82,29.67-22.73a56.33,56.33,0,0,0,15.14,9.27A10.25,10.25,0,0,1,644.81,172.69Z"/><path class="cls-1" d="M663.82,90.67c14-4.94,22.22-17.81,18.36-28.74s-18.33-15.8-32.33-10.87a31.78,31.78,0,0,0-14.35,10,25,25,0,0,1-5.92,5.31c-6.06,4-9.16,10.63-7.12,16.39,2,5.59,8.17,8.76,15.15,8.36a25.63,25.63,0,0,1,8,.59A31.5,31.5,0,0,0,663.82,90.67Z"/><path class="cls-1" d="M662.14,144c14.33.48,26.25-8.21,26.62-19.41S677.82,104,663.49,103.49a30.54,30.54,0,0,0-16.42,3.94,24.66,24.66,0,0,1-7.2,2.7c-6.87,1.5-12,6.33-12.17,12.24-.19,5.72,4.27,10.75,10.7,12.85a24.48,24.48,0,0,1,7,3.33A30.42,30.42,0,0,0,662.14,144Z"/></svg>