<svg id="_ÎÓÈ_1" data-name="—ÎÓÈ_1" xmlns="http://www.w3.org/2000/svg" viewBox="0 0 695.81 649.06"><defs><style>.cls-1{fill:#1a1a1a;}</style></defs><title>paws-up</title><path class="cls-1" d="M253,413.82c1.59-11.15,5.08-22,11.35-31.39a32.21,32.21,0,0,0-19.92-49.88c-11-2.47-21-7.95-29.84-14.95-10-7.9-22.12-10.76-32.83-6.49-17.86,7.13-24.95,31.42-15.84,54.24a53.26,53.26,0,0,0,15.3,21.35,53.28,53.28,0,0,0,3.61,26c9.12,22.82,31,35.54,48.84,28.41C244.35,436.86,251.18,426.42,253,413.82Z"/><path class="cls-1" d="M266.44,252.29c-14.43-2.92-35.83-2.43-45.28,21.9a20.16,20.16,0,0,0,7.3,23.84c14.94,10.37,40.1,22.66,43.7-9a67.39,67.39,0,0,1,3.46-20.92A12.23,12.23,0,0,0,266.44,252.29Z"/><path class="cls-1" d="M328.45,409.28c-3.28,11.89-11.73,27.7-33.5,25.56a16.89,16.89,0,0,1-15.05-14.47c-2.11-15.09-1.78-38.54,23.27-29.25a56.43,56.43,0,0,0,16.94,5.32A10.25,10.25,0,0,1,328.45,409.28Z"/><path class="cls-1" d="M327,325.1c12.38-8.19,17.23-22.67,10.83-32.34s-21.62-10.88-34-2.69a31.67,31.67,0,0,0-11.49,13.17,25.74,25.74,0,0,1-4.45,6.59c-4.91,5.39-6.31,12.52-2.94,17.63,3.27,4.94,10.05,6.51,16.73,4.42a25.45,25.45,0,0,1,7.86-1.35A31.54,31.54,0,0,0,327,325.1Z"/><path class="cls-1" d="M338.31,377.28c14-3,23.47-14.34,21.12-25.29s-15.63-17.39-29.65-14.38a30.7,30.7,0,0,0-15,7.81,24.41,24.41,0,0,1-6.32,4.36c-6.31,3.13-10.08,9.06-8.84,14.83,1.2,5.6,6.75,9.4,13.5,9.87a24.82,24.82,0,0,1,7.54,1.54A30.44,30.44,0,0,0,338.31,377.28Z"/><path class="cls-1" d="M51.6,523.94C60.68,530.6,70.91,535.7,82,537.76a32.21,32.21,0,0,1,21.79,49.09c-5.92,9.59-9,20.59-10.16,31.8-1.31,12.65-7.75,23.34-18.28,28-17.58,7.8-39.91-4.09-49.88-26.56a53.14,53.14,0,0,1-4.59-25.86A53.12,53.12,0,0,1,4.77,573.5c-10-22.47-3.8-47,13.78-54.8C29.08,514,41.33,516.43,51.6,523.94Z"/><path class="cls-1" d="M176.59,627.14c-8,12.37-23.28,27.34-47.3,17.11a20.16,20.16,0,0,1-11.95-21.88c3-17.94,11.79-44.53,37-25a67.15,67.15,0,0,0,17.39,12.13A12.23,12.23,0,0,1,176.59,627.14Z"/><path class="cls-1" d="M107.57,473.11c-10.8-6-28-10.95-41.69,6.11a16.87,16.87,0,0,0-.16,20.88c9.33,12,26.34,28.2,37.18,3.79a56.13,56.13,0,0,1,8-15.84A10.25,10.25,0,0,0,107.57,473.11Z"/><path class="cls-1" d="M166.79,533c14.5-3.14,28.25,3.51,30.71,14.84s-7.32,23.07-21.83,26.21a31.73,31.73,0,0,1-17.45-1,25.42,25.42,0,0,0-7.83-1.42c-7.28-.26-13.37-4.23-14.66-10.21-1.26-5.8,2.36-11.75,8.52-15.06a25.78,25.78,0,0,0,6.46-4.68A31.44,31.44,0,0,1,166.79,533Z"/><path class="cls-1" d="M137.35,488.41c12-7.93,26.66-6.79,32.85,2.55s1.53,23.33-10.42,31.26a30.6,30.6,0,0,1-16.05,5.26,24.63,24.63,0,0,0-7.54,1.48c-6.64,2.33-13.52.89-16.79-4-3.16-4.77-2-11.39,2.37-16.55a24.92,24.92,0,0,0,4.17-6.48A30.34,30.34,0,0,1,137.35,488.41Z"/><path class="cls-1" d="M450.6,302.52c9.08,6.65,19.31,11.76,30.38,13.81a32.21,32.21,0,0,1,21.79,49.09c-5.92,9.59-9,20.59-10.16,31.8-1.31,12.65-7.75,23.35-18.28,28-17.58,7.8-39.91-4.09-49.88-26.55a53.16,53.16,0,0,1-4.59-25.86,53.23,53.23,0,0,1-16.09-20.76c-10-22.46-3.8-47,13.78-54.8C428.08,292.6,440.33,295,450.6,302.52Z"/><path class="cls-1" d="M575.59,405.71c-8,12.37-23.28,27.34-47.3,17.11a20.14,20.14,0,0,1-11.95-21.88c3-17.94,11.79-44.52,37-25a67.31,67.31,0,0,0,17.39,12.14A12.22,12.22,0,0,1,575.59,405.71Z"/><path class="cls-1" d="M506.57,251.69c-10.8-6-28-11-41.69,6.1a16.88,16.88,0,0,0-.16,20.89c9.33,12,26.34,28.19,37.18,3.78a56.13,56.13,0,0,1,8-15.84A10.24,10.24,0,0,0,506.57,251.69Z"/><path class="cls-1" d="M565.79,311.53c14.5-3.14,28.25,3.5,30.71,14.84s-7.32,23.07-21.83,26.21a31.63,31.63,0,0,1-17.45-1,25.41,25.41,0,0,0-7.83-1.41C542.11,349.93,536,346,534.73,340c-1.26-5.79,2.36-11.74,8.52-15.06a25.78,25.78,0,0,0,6.46-4.68A31.5,31.5,0,0,1,565.79,311.53Z"/><path class="cls-1" d="M536.35,267c11.95-7.93,26.66-6.78,32.85,2.55s1.53,23.34-10.42,31.26a30.6,30.6,0,0,1-16,5.26,24.63,24.63,0,0,0-7.54,1.48c-6.64,2.33-13.52.89-16.79-4-3.16-4.77-2-11.4,2.37-16.55a24.92,24.92,0,0,0,4.17-6.48A30.36,30.36,0,0,1,536.35,267Z"/><path class="cls-1" d="M589,162.76c1.59-11.15,5.08-22,11.35-31.39a32.21,32.21,0,0,0-19.92-49.88c-11-2.47-21-7.95-29.84-14.95-10-7.89-22.12-10.76-32.83-6.48-17.86,7.13-24.95,31.41-15.84,54.23a53.19,53.19,0,0,0,15.3,21.35,53.16,53.16,0,0,0,3.62,26c9.11,22.82,31,35.55,48.83,28.42C580.37,185.8,587.2,175.36,589,162.76Z"/><path class="cls-1" d="M602.46,1.23C588-1.69,566.63-1.2,557.18,23.13A20.17,20.17,0,0,0,564.48,47c14.94,10.38,40.1,22.66,43.7-9A67.42,67.42,0,0,1,611.64,17,12.23,12.23,0,0,0,602.46,1.23Z"/><path class="cls-1" d="M664.47,158.22c-3.28,11.89-11.73,27.7-33.5,25.56a16.87,16.87,0,0,1-15.05-14.47c-2.11-15.09-1.78-38.54,23.27-29.25a56.43,56.43,0,0,0,16.94,5.32A10.25,10.25,0,0,1,664.47,158.22Z"/><path class="cls-1" d="M663,74c12.38-8.19,17.23-22.67,10.83-32.34s-21.62-10.88-34-2.69a31.67,31.67,0,0,0-11.49,13.17,25.57,25.57,0,0,1-4.45,6.59C619,64.16,617.59,71.3,621,76.4c3.27,4.94,10,6.51,16.73,4.42a25.45,25.45,0,0,1,7.86-1.35A31.54,31.54,0,0,0,663,74Z"/><path class="cls-1" d="M674.33,126.22c14-3,23.47-14.33,21.12-25.29S679.82,83.54,665.8,86.55a30.7,30.7,0,0,0-15,7.81,24.41,24.41,0,0,1-6.32,4.36c-6.31,3.13-10.08,9.06-8.84,14.84,1.2,5.59,6.75,9.39,13.5,9.86A24.53,24.53,0,0,1,656.7,125,30.45,30.45,0,0,0,674.33,126.22Z"/></svg>