<svg id="_ÎÓÈ_1" data-name="—ÎÓÈ_1" xmlns="http://www.w3.org/2000/svg" viewBox="0 0 1500 1500"><defs><style>.cls-1{fill:#fff;}.cls-2{fill:#1a1a1a;}</style></defs><title>paws-up</title><rect class="cls-1" width="1500" height="1500"/><path class="cls-2" d="M1194.28,1116.48c-11.15-1.58-22-5.07-31.39-11.34a32.21,32.21,0,0,0-49.88,19.91c-2.47,11-8,21-15,29.85-7.9,10-10.76,22.12-6.49,32.83,7.13,17.85,31.42,24.94,54.24,15.83a53.1,53.1,0,0,0,21.35-15.3,53.17,53.17,0,0,0,26-3.61c22.82-9.11,35.55-31,28.41-48.84C1217.32,1125.11,1206.88,1118.27,1194.28,1116.48Z"/><path class="cls-2" d="M1032.75,1103c-2.92,14.44-2.43,35.83,21.9,45.29a20.16,20.16,0,0,0,23.84-7.31c10.37-14.94,22.66-40.1-9-43.7a67,67,0,0,1-20.92-3.46A12.23,12.23,0,0,0,1032.75,1103Z"/><path class="cls-2" d="M1189.74,1041c11.89,3.27,27.7,11.73,25.56,33.49a16.87,16.87,0,0,1-14.47,15c-15.09,2.11-38.54,1.78-29.25-23.26a56.43,56.43,0,0,0,5.32-16.94A10.24,10.24,0,0,1,1189.74,1041Z"/><path class="cls-2" d="M1105.56,1042.46c-8.19-12.38-22.67-17.23-32.34-10.83s-10.88,21.62-2.69,34a31.62,31.62,0,0,0,13.17,11.5,25.74,25.74,0,0,1,6.59,4.45c5.39,4.9,12.52,6.31,17.63,2.93,4.94-3.27,6.51-10,4.42-16.72a25.5,25.5,0,0,1-1.35-7.86A31.55,31.55,0,0,0,1105.56,1042.46Z"/><path class="cls-2" d="M1157.74,1031.15c-3-14-14.33-23.48-25.29-21.12s-17.39,15.63-14.38,29.65a30.62,30.62,0,0,0,7.81,15,24.63,24.63,0,0,1,4.36,6.33c3.13,6.31,9.06,10.08,14.84,8.84,5.59-1.21,9.39-6.76,9.86-13.5a24.6,24.6,0,0,1,1.55-7.55A30.49,30.49,0,0,0,1157.74,1031.15Z"/><path class="cls-2" d="M1304.41,1317.86c6.65-9.09,11.76-19.31,13.81-30.39a32.21,32.21,0,0,1,49.09-21.78c9.59,5.91,20.59,9,31.8,10.15,12.65,1.32,23.34,7.75,28,18.29,7.8,17.58-4.09,39.91-26.55,49.87a53.19,53.19,0,0,1-25.86,4.6,53.32,53.32,0,0,1-20.76,16.09c-22.47,10-47,3.8-54.8-13.78C1294.48,1340.37,1296.89,1328.13,1304.41,1317.86Z"/><path class="cls-2" d="M1407.6,1192.86c12.37,8,27.34,23.29,17.11,47.31a20.17,20.17,0,0,1-21.88,11.95c-17.94-3-44.53-11.79-25-37a67.2,67.2,0,0,0,12.13-17.38A12.24,12.24,0,0,1,1407.6,1192.86Z"/><path class="cls-2" d="M1253.57,1261.89c-6,10.8-11,28,6.11,41.69a16.88,16.88,0,0,0,20.88.16c12-9.33,28.2-26.34,3.79-37.18a56.46,56.46,0,0,1-15.84-8A10.25,10.25,0,0,0,1253.57,1261.89Z"/><path class="cls-2" d="M1313.42,1202.67c-3.15-14.51,3.5-28.26,14.83-30.71s23.07,7.32,26.21,21.82a31.76,31.76,0,0,1-1,17.46,25.72,25.72,0,0,0-1.42,7.82c-.25,7.29-4.23,13.37-10.21,14.67-5.79,1.25-11.74-2.36-15.06-8.52a25.6,25.6,0,0,0-4.68-6.46A31.35,31.35,0,0,1,1313.42,1202.67Z"/><path class="cls-2" d="M1268.87,1232.11c-7.93-11.95-6.79-26.66,2.55-32.85s23.33-1.53,31.26,10.42a30.55,30.55,0,0,1,5.26,16,24.62,24.62,0,0,0,1.48,7.53c2.33,6.65.89,13.53-4,16.79-4.77,3.17-11.39,2-16.54-2.37a24.84,24.84,0,0,0-6.49-4.16A30.46,30.46,0,0,1,1268.87,1232.11Z"/><path class="cls-2" d="M1083,918.86c6.66-9.09,11.76-19.31,13.81-30.39a32.21,32.21,0,0,1,49.09-21.78c9.59,5.91,20.6,9,31.8,10.15,12.66,1.32,23.35,7.75,28,18.29,7.8,17.58-4.09,39.91-26.55,49.87a53.15,53.15,0,0,1-25.86,4.6,53.25,53.25,0,0,1-20.76,16.09c-22.46,10-47,3.8-54.79-13.78C1073.06,941.37,1075.46,929.13,1083,918.86Z"/><path class="cls-2" d="M1186.17,793.86c12.37,8,27.34,23.29,17.11,47.31a20.16,20.16,0,0,1-21.88,12c-17.94-3-44.52-11.79-25-37a67.36,67.36,0,0,0,12.14-17.38A12.22,12.22,0,0,1,1186.17,793.86Z"/><path class="cls-2" d="M1032.15,862.89c-6,10.8-11,28,6.1,41.69a16.9,16.9,0,0,0,20.89.16c12-9.33,28.19-26.34,3.78-37.18a56.6,56.6,0,0,1-15.84-8A10.24,10.24,0,0,0,1032.15,862.89Z"/><path class="cls-2" d="M1092,803.67c-3.14-14.51,3.5-28.26,14.84-30.71s23.07,7.32,26.21,21.82a31.67,31.67,0,0,1-1,17.46,25.4,25.4,0,0,0-1.41,7.82c-.26,7.29-4.24,13.37-10.22,14.67-5.79,1.25-11.74-2.36-15.06-8.52a25.6,25.6,0,0,0-4.68-6.46A31.5,31.5,0,0,1,1092,803.67Z"/><path class="cls-2" d="M1047.44,833.11c-7.93-12-6.78-26.66,2.55-32.85s23.34-1.53,31.26,10.42a30.55,30.55,0,0,1,5.26,16.05,24.62,24.62,0,0,0,1.48,7.53c2.33,6.65.89,13.53-4,16.79-4.77,3.17-11.4,2-16.55-2.37a24.63,24.63,0,0,0-6.48-4.16A30.49,30.49,0,0,1,1047.44,833.11Z"/><path class="cls-2" d="M943.22,780.46c-11.15-1.58-22-5.07-31.39-11.34A32.21,32.21,0,0,0,862,789c-2.46,11-8,21-14.94,29.85-7.9,10-10.77,22.12-6.49,32.82,7.13,17.86,31.41,24.95,54.24,15.84a53.17,53.17,0,0,0,21.35-15.3,53.13,53.13,0,0,0,26-3.61c22.82-9.11,35.55-31,28.42-48.84C966.26,789.09,955.82,782.25,943.22,780.46Z"/><path class="cls-2" d="M781.69,767c-2.92,14.44-2.43,35.83,21.9,45.29A20.16,20.16,0,0,0,827.43,805c10.38-14.94,22.66-40.1-9-43.7a67,67,0,0,1-20.91-3.46A12.24,12.24,0,0,0,781.69,767Z"/><path class="cls-2" d="M938.68,705c11.89,3.27,27.7,11.73,25.57,33.49a16.88,16.88,0,0,1-14.48,15c-15.09,2.11-38.54,1.78-29.25-23.26a56.43,56.43,0,0,0,5.32-16.94A10.25,10.25,0,0,1,938.68,705Z"/><path class="cls-2" d="M854.5,706.44c-8.19-12.38-22.67-17.23-32.34-10.83s-10.88,21.62-2.69,34a31.68,31.68,0,0,0,13.17,11.5,25.32,25.32,0,0,1,6.59,4.45c5.39,4.9,12.53,6.31,17.63,2.93,4.94-3.27,6.51-10,4.42-16.73a25.68,25.68,0,0,1-1.35-7.85A31.55,31.55,0,0,0,854.5,706.44Z"/><path class="cls-2" d="M906.68,695.13c-3-14-14.33-23.48-25.29-21.12S864,689.64,867,703.66a30.62,30.62,0,0,0,7.81,15,24.67,24.67,0,0,1,4.37,6.33c3.12,6.3,9,10.08,14.83,8.84,5.6-1.21,9.39-6.76,9.86-13.5a24.6,24.6,0,0,1,1.55-7.55A30.32,30.32,0,0,0,906.68,695.13Z"/><path class="cls-2" d="M583.59,768.91c6.65-9.09,11.76-19.31,13.81-30.39a32.2,32.2,0,0,1,49.09-21.78c9.59,5.91,20.59,9,31.8,10.15,12.65,1.31,23.35,7.75,28,18.29,7.8,17.57-4.09,39.9-26.55,49.87a53.16,53.16,0,0,1-25.86,4.59,53.25,53.25,0,0,1-20.76,16.1c-22.46,10-47,3.79-54.8-13.78C573.67,791.42,576.07,779.17,583.59,768.91Z"/><path class="cls-2" d="M686.78,643.91c12.37,8,27.34,23.29,17.11,47.3a20.16,20.16,0,0,1-21.88,12c-17.94-3-44.52-11.79-25-37a67.36,67.36,0,0,0,12.14-17.38A12.22,12.22,0,0,1,686.78,643.91Z"/><path class="cls-2" d="M532.75,712.94c-6,10.79-11,28,6.11,41.69a16.88,16.88,0,0,0,20.88.15c12-9.32,28.2-26.33,3.79-37.18a56.25,56.25,0,0,1-15.84-8A10.25,10.25,0,0,0,532.75,712.94Z"/><path class="cls-2" d="M592.6,653.72c-3.14-14.51,3.5-28.26,14.84-30.71s23.07,7.31,26.21,21.82a31.76,31.76,0,0,1-1,17.46,25.61,25.61,0,0,0-1.42,7.82C631,677.39,627,683.48,621,684.78c-5.79,1.25-11.74-2.37-15.06-8.52a25.6,25.6,0,0,0-4.68-6.46A31.5,31.5,0,0,1,592.6,653.72Z"/><path class="cls-2" d="M548.05,683.15c-7.93-11.94-6.79-26.65,2.55-32.85s23.33-1.53,31.26,10.42a30.6,30.6,0,0,1,5.26,16,24.63,24.63,0,0,0,1.48,7.54c2.33,6.65.89,13.52-4,16.79s-11.4,2-16.55-2.37a24.92,24.92,0,0,0-6.48-4.17A30.31,30.31,0,0,1,548.05,683.15Z"/><path class="cls-2" d="M483.59,562.77c-11.15-1.58-22-5.07-31.39-11.34a32.21,32.21,0,0,0-49.88,19.91c-2.46,11-7.95,21-14.94,29.85-7.9,10-10.77,22.12-6.49,32.83C388,651.87,412.3,659,435.13,649.85a53.17,53.17,0,0,0,21.35-15.3,53.13,53.13,0,0,0,26-3.61c22.83-9.11,35.55-31,28.42-48.84C506.63,571.4,496.19,564.56,483.59,562.77Z"/><path class="cls-2" d="M322.06,549.3c-2.92,14.44-2.43,35.83,21.91,45.29a20.15,20.15,0,0,0,23.83-7.31c10.38-14.94,22.66-40.1-9-43.7a67,67,0,0,1-20.91-3.46A12.24,12.24,0,0,0,322.06,549.3Z"/><path class="cls-2" d="M479.05,487.3c11.89,3.27,27.7,11.73,25.57,33.49a16.88,16.88,0,0,1-14.48,15.05c-15.09,2.11-38.54,1.78-29.25-23.26a56.1,56.1,0,0,0,5.32-16.94A10.25,10.25,0,0,1,479.05,487.3Z"/><path class="cls-2" d="M394.87,488.75c-8.19-12.38-22.67-17.23-32.34-10.83s-10.88,21.62-2.69,34A31.68,31.68,0,0,0,373,523.42a25.57,25.57,0,0,1,6.59,4.45c5.39,4.9,12.53,6.31,17.63,2.93,4.94-3.27,6.51-10,4.42-16.72a25.8,25.8,0,0,1-1.35-7.86A31.55,31.55,0,0,0,394.87,488.75Z"/><path class="cls-2" d="M447.06,477.44c-3-14-14.34-23.48-25.3-21.12S404.37,472,407.38,486a30.62,30.62,0,0,0,7.81,15,24.67,24.67,0,0,1,4.37,6.33c3.12,6.31,9.05,10.08,14.83,8.84,5.6-1.21,9.39-6.76,9.86-13.5a24.6,24.6,0,0,1,1.55-7.55A30.4,30.4,0,0,0,447.06,477.44Z"/><path class="cls-2" d="M368.21,362.81c6.65-9.09,11.76-19.32,13.81-30.39a32.2,32.2,0,0,1,49.09-21.78c9.59,5.91,20.59,9,31.8,10.15,12.65,1.31,23.34,7.75,28,18.28,7.8,17.58-4.09,39.91-26.55,49.88a53.18,53.18,0,0,1-25.86,4.59,53.23,53.23,0,0,1-20.76,16.09c-22.47,10-47,3.8-54.8-13.78C358.28,385.32,360.69,373.07,368.21,362.81Z"/><path class="cls-2" d="M471.4,237.81c12.37,8,27.34,23.29,17.11,47.3a20.18,20.18,0,0,1-21.88,12c-17.94-3-44.53-11.8-25-37a67.15,67.15,0,0,0,12.13-17.39A12.23,12.23,0,0,1,471.4,237.81Z"/><path class="cls-2" d="M317.37,306.83c-6,10.8-10.95,28,6.11,41.69a16.87,16.87,0,0,0,20.88.16c12.05-9.32,28.2-26.33,3.79-37.18a56.25,56.25,0,0,1-15.84-8A10.24,10.24,0,0,0,317.37,306.83Z"/><path class="cls-2" d="M377.21,247.61c-3.14-14.5,3.51-28.25,14.84-30.71s23.07,7.32,26.21,21.83a31.76,31.76,0,0,1-1,17.46,25.61,25.61,0,0,0-1.42,7.82c-.25,7.28-4.23,13.37-10.21,14.66-5.79,1.26-11.74-2.36-15.06-8.52a25.78,25.78,0,0,0-4.68-6.46A31.51,31.51,0,0,1,377.21,247.61Z"/><path class="cls-2" d="M332.67,277.05c-7.93-11.95-6.79-26.66,2.55-32.85s23.33-1.53,31.26,10.42a30.6,30.6,0,0,1,5.26,16.05,24.63,24.63,0,0,0,1.48,7.54c2.33,6.64.89,13.52-4,16.79-4.77,3.16-11.39,2-16.54-2.37a25.14,25.14,0,0,0-6.49-4.17A30.34,30.34,0,0,1,332.67,277.05Z"/><path class="cls-2" d="M232.24,243.54c-10.89-2.87-21.29-7.6-29.86-14.92a32.21,32.21,0,0,0-51.86,14c-3.73,10.63-10.34,20-18.32,27.91-9,9-13.26,20.71-10.26,31.85,5,18.56,28.29,28.43,52,22a53.22,53.22,0,0,0,23-12.71,53.09,53.09,0,0,0,26.26-.56c23.73-6.39,38.91-26.63,33.91-45.19C254.12,254.79,244.54,246.79,232.24,243.54Z"/><path class="cls-2" d="M73.38,211.36c-4.59,14-6.59,35.3,16.48,47.53a20.16,20.16,0,0,0,24.52-4.48c12.05-13.63,27.18-37.19-3.87-44.45a67.35,67.35,0,0,1-20.37-5.87A12.22,12.22,0,0,0,73.38,211.36Z"/><path class="cls-2" d="M236.51,168.06c11.43,4.63,26.15,14.87,21.5,36.24a16.88,16.88,0,0,1-16.13,13.26c-15.23.34-38.49-2.72-26.34-26.51a56.48,56.48,0,0,0,7.25-16.2A10.24,10.24,0,0,1,236.51,168.06Z"/><path class="cls-2" d="M152.74,159.7c-6.69-13.25-20.51-19.75-30.86-14.52s-13.32,20.2-6.63,33.45a31.6,31.6,0,0,0,11.74,13,25.58,25.58,0,0,1,6,5.19c4.78,5.5,11.7,7.73,17.16,5,5.29-2.67,7.64-9.23,6.35-16.1a25.38,25.38,0,0,1-.43-8A31.58,31.58,0,0,0,152.74,159.7Z"/><path class="cls-2" d="M205.88,154.54c-1.36-14.28-11.5-25-22.66-23.92s-19.09,13.49-17.73,27.77a30.6,30.6,0,0,0,6,15.78,24.6,24.6,0,0,1,3.6,6.79c2.37,6.63,7.82,11.07,13.7,10.51,5.7-.54,10.12-5.62,11.37-12.26a25,25,0,0,1,2.41-7.32A30.32,30.32,0,0,0,205.88,154.54Z"/></svg>